<svg width="408" height="193" viewBox="0 0 408 193" fill="none" xmlns="http://www.w3.org/2000/svg">
<g filter="url(#filter0_d_4208_3570)">
<rect x="5" y="1" width="398" height="183" rx="9" stroke="#E0E0E0" stroke-width="2" stroke-dasharray="4 4" shape-rendering="crispEdges"/>
</g>
<path d="M166.699 102.2C167.688 102.2 168.472 102.424 169.051 102.872C169.63 103.32 169.919 103.931 169.919 104.706C169.919 105.005 169.877 105.271 169.793 105.504C169.718 105.737 169.616 105.943 169.485 106.12C169.364 106.288 169.214 106.437 169.037 106.568C168.869 106.699 168.696 106.811 168.519 106.904C168.808 107.007 169.07 107.128 169.303 107.268C169.546 107.399 169.751 107.557 169.919 107.744C170.096 107.931 170.232 108.155 170.325 108.416C170.418 108.668 170.465 108.962 170.465 109.298C170.465 109.737 170.376 110.124 170.199 110.46C170.031 110.796 169.788 111.081 169.471 111.314C169.154 111.538 168.771 111.711 168.323 111.832C167.875 111.944 167.38 112 166.839 112H162.303V102.2H166.699ZM166.349 106.33C166.909 106.33 167.357 106.223 167.693 106.008C168.029 105.784 168.197 105.443 168.197 104.986C168.197 104.585 168.048 104.277 167.749 104.062C167.46 103.838 167.035 103.726 166.475 103.726H163.997V106.33H166.349ZM166.853 110.474C167.441 110.474 167.903 110.362 168.239 110.138C168.575 109.905 168.743 109.564 168.743 109.116C168.743 108.696 168.575 108.369 168.239 108.136C167.912 107.903 167.408 107.786 166.727 107.786H163.997V110.474H166.853ZM177.068 108.78V104.608H178.762V112H177.068V110.852C176.826 111.207 176.522 111.515 176.158 111.776C175.794 112.028 175.328 112.154 174.758 112.154C173.918 112.154 173.27 111.897 172.812 111.384C172.355 110.871 172.126 110.18 172.126 109.312V104.608H173.82V108.808C173.82 109.387 173.956 109.835 174.226 110.152C174.506 110.46 174.898 110.614 175.402 110.614C175.897 110.614 176.298 110.455 176.606 110.138C176.914 109.811 177.068 109.359 177.068 108.78ZM182.684 112H180.99V101.78H182.684V112ZM188.776 107.618L191.814 112H189.854L187.628 108.808L186.592 109.886V112H184.898V101.78H186.592V107.884L189.658 104.608H191.716L188.776 107.618ZM205.672 102.2V107.758C205.672 108.486 205.569 109.125 205.364 109.676C205.168 110.227 204.888 110.689 204.524 111.062C204.16 111.426 203.716 111.701 203.194 111.888C202.68 112.065 202.102 112.154 201.458 112.154C200.823 112.154 200.249 112.065 199.736 111.888C199.222 111.701 198.784 111.426 198.42 111.062C198.056 110.698 197.776 110.25 197.58 109.718C197.384 109.177 197.286 108.551 197.286 107.842V102.2H199.008V107.772C199.008 108.687 199.227 109.382 199.666 109.858C200.104 110.334 200.711 110.572 201.486 110.572C202.251 110.572 202.853 110.343 203.292 109.886C203.73 109.429 203.95 108.747 203.95 107.842V102.2H205.672ZM215.483 108.304C215.483 108.92 215.385 109.466 215.189 109.942C215.003 110.418 214.746 110.824 214.419 111.16C214.102 111.487 213.733 111.734 213.313 111.902C212.903 112.07 212.478 112.154 212.039 112.154C211.433 112.154 210.929 112.023 210.527 111.762C210.126 111.501 209.795 111.197 209.533 110.852V114.24H207.839V104.608H209.533V105.84C209.804 105.448 210.14 105.121 210.541 104.86C210.943 104.589 211.442 104.454 212.039 104.454C212.478 104.454 212.903 104.538 213.313 104.706C213.724 104.874 214.088 105.126 214.405 105.462C214.732 105.789 214.993 106.19 215.189 106.666C215.385 107.142 215.483 107.688 215.483 108.304ZM213.761 108.304C213.761 107.94 213.705 107.613 213.593 107.324C213.481 107.025 213.327 106.773 213.131 106.568C212.945 106.363 212.721 106.204 212.459 106.092C212.207 105.98 211.937 105.924 211.647 105.924C211.358 105.924 211.083 105.98 210.821 106.092C210.56 106.204 210.331 106.367 210.135 106.582C209.939 106.787 209.781 107.035 209.659 107.324C209.547 107.613 209.491 107.94 209.491 108.304C209.491 108.668 209.547 108.995 209.659 109.284C209.781 109.573 209.939 109.825 210.135 110.04C210.331 110.245 210.56 110.404 210.821 110.516C211.083 110.628 211.358 110.684 211.647 110.684C211.937 110.684 212.207 110.628 212.459 110.516C212.721 110.404 212.945 110.245 213.131 110.04C213.327 109.835 213.481 109.587 213.593 109.298C213.705 108.999 213.761 108.668 213.761 108.304ZM219.01 112H217.316V101.78H219.01V112ZM228.7 108.304C228.7 108.836 228.597 109.335 228.392 109.802C228.196 110.269 227.921 110.679 227.566 111.034C227.221 111.379 226.805 111.655 226.32 111.86C225.835 112.065 225.307 112.168 224.738 112.168C224.178 112.168 223.655 112.07 223.17 111.874C222.694 111.669 222.279 111.393 221.924 111.048C221.579 110.693 221.308 110.287 221.112 109.83C220.916 109.363 220.818 108.864 220.818 108.332C220.818 107.8 220.916 107.301 221.112 106.834C221.317 106.358 221.593 105.947 221.938 105.602C222.293 105.247 222.708 104.967 223.184 104.762C223.669 104.557 224.197 104.454 224.766 104.454C225.335 104.454 225.858 104.557 226.334 104.762C226.819 104.958 227.235 105.233 227.58 105.588C227.935 105.933 228.21 106.339 228.406 106.806C228.602 107.273 228.7 107.772 228.7 108.304ZM227.006 108.332C227.006 108.005 226.95 107.697 226.838 107.408C226.726 107.119 226.567 106.867 226.362 106.652C226.166 106.428 225.928 106.255 225.648 106.134C225.377 106.003 225.074 105.938 224.738 105.938C224.402 105.938 224.094 106.003 223.814 106.134C223.543 106.255 223.31 106.423 223.114 106.638C222.918 106.853 222.769 107.105 222.666 107.394C222.563 107.674 222.512 107.977 222.512 108.304C222.512 108.631 222.568 108.943 222.68 109.242C222.792 109.531 222.946 109.783 223.142 109.998C223.347 110.213 223.585 110.385 223.856 110.516C224.136 110.637 224.439 110.698 224.766 110.698C225.111 110.698 225.419 110.637 225.69 110.516C225.97 110.385 226.208 110.213 226.404 109.998C226.6 109.783 226.749 109.536 226.852 109.256C226.955 108.967 227.006 108.659 227.006 108.332ZM236.627 112H234.947V111.09C234.695 111.389 234.373 111.641 233.981 111.846C233.589 112.051 233.113 112.154 232.553 112.154C232.199 112.154 231.863 112.103 231.545 112C231.228 111.907 230.948 111.767 230.705 111.58C230.472 111.384 230.281 111.146 230.131 110.866C229.991 110.577 229.921 110.245 229.921 109.872V109.844C229.921 109.443 229.996 109.093 230.145 108.794C230.295 108.495 230.5 108.248 230.761 108.052C231.032 107.856 231.349 107.711 231.713 107.618C232.087 107.515 232.488 107.464 232.917 107.464C233.365 107.464 233.743 107.492 234.051 107.548C234.369 107.604 234.672 107.679 234.961 107.772V107.59C234.961 107.077 234.803 106.685 234.485 106.414C234.177 106.143 233.729 106.008 233.141 106.008C232.721 106.008 232.348 106.05 232.021 106.134C231.695 106.218 231.363 106.33 231.027 106.47L230.565 105.112C230.976 104.925 231.396 104.776 231.825 104.664C232.255 104.552 232.773 104.496 233.379 104.496C234.481 104.496 235.297 104.771 235.829 105.322C236.361 105.863 236.627 106.629 236.627 107.618V112ZM234.989 109.326V108.864C234.775 108.78 234.518 108.71 234.219 108.654C233.93 108.598 233.622 108.57 233.295 108.57C232.763 108.57 232.348 108.673 232.049 108.878C231.751 109.083 231.601 109.377 231.601 109.76V109.788C231.601 110.143 231.737 110.413 232.007 110.6C232.287 110.787 232.628 110.88 233.029 110.88C233.309 110.88 233.566 110.843 233.799 110.768C234.042 110.693 234.252 110.591 234.429 110.46C234.607 110.32 234.742 110.157 234.835 109.97C234.938 109.774 234.989 109.559 234.989 109.326ZM245.908 112H244.214V110.768C243.943 111.151 243.603 111.477 243.192 111.748C242.791 112.019 242.291 112.154 241.694 112.154C241.255 112.154 240.831 112.07 240.42 111.902C240.009 111.734 239.645 111.487 239.328 111.16C239.011 110.824 238.754 110.418 238.558 109.942C238.362 109.466 238.264 108.92 238.264 108.304C238.264 107.688 238.357 107.142 238.544 106.666C238.74 106.19 238.997 105.789 239.314 105.462C239.631 105.126 239.995 104.874 240.406 104.706C240.826 104.538 241.255 104.454 241.694 104.454C242.301 104.454 242.805 104.585 243.206 104.846C243.607 105.107 243.943 105.411 244.214 105.756V101.78H245.908V112ZM244.242 108.304C244.242 107.94 244.181 107.613 244.06 107.324C243.948 107.035 243.794 106.787 243.598 106.582C243.402 106.367 243.173 106.204 242.912 106.092C242.651 105.98 242.38 105.924 242.1 105.924C241.811 105.924 241.535 105.98 241.274 106.092C241.022 106.195 240.798 106.349 240.602 106.554C240.406 106.759 240.252 107.011 240.14 107.31C240.028 107.599 239.972 107.931 239.972 108.304C239.972 108.668 240.028 108.999 240.14 109.298C240.252 109.587 240.406 109.835 240.602 110.04C240.798 110.245 241.022 110.404 241.274 110.516C241.535 110.628 241.811 110.684 242.1 110.684C242.38 110.684 242.651 110.628 242.912 110.516C243.173 110.404 243.402 110.245 243.598 110.04C243.794 109.825 243.948 109.573 244.06 109.284C244.181 108.995 244.242 108.668 244.242 108.304Z" fill="#4F4F4F"/>
<path d="M62.2043 125.6V130.412C62.2043 131.028 62.1203 131.568 61.9523 132.032C61.7843 132.496 61.5443 132.884 61.2323 133.196C60.9283 133.508 60.5603 133.744 60.1283 133.904C59.7043 134.056 59.2283 134.132 58.7003 134.132C58.1803 134.132 57.7043 134.056 57.2723 133.904C56.8483 133.744 56.4803 133.512 56.1683 133.208C55.8643 132.896 55.6283 132.512 55.4603 132.056C55.2923 131.6 55.2083 131.076 55.2083 130.484V125.6H56.1563V130.424C56.1563 131.336 56.3803 132.036 56.8283 132.524C57.2843 133.012 57.9163 133.256 58.7243 133.256C59.5003 133.256 60.1163 133.024 60.5723 132.56C61.0283 132.096 61.2563 131.404 61.2563 130.484V125.6H62.2043ZM70.5538 130.892C70.5538 131.404 70.4698 131.86 70.3018 132.26C70.1338 132.66 69.9098 133 69.6298 133.28C69.3578 133.552 69.0418 133.764 68.6818 133.916C68.3298 134.06 67.9658 134.132 67.5898 134.132C67.3018 134.132 67.0378 134.096 66.7978 134.024C66.5578 133.952 66.3418 133.856 66.1498 133.736C65.9578 133.616 65.7818 133.476 65.6218 133.316C65.4698 133.156 65.3338 132.988 65.2138 132.812V135.92H64.2898V127.796H65.2138V129.044C65.3418 128.86 65.4818 128.684 65.6338 128.516C65.7938 128.348 65.9698 128.204 66.1618 128.084C66.3538 127.956 66.5658 127.856 66.7978 127.784C67.0378 127.704 67.3018 127.664 67.5898 127.664C67.9578 127.664 68.3178 127.736 68.6698 127.88C69.0298 128.024 69.3498 128.236 69.6298 128.516C69.9098 128.788 70.1338 129.124 70.3018 129.524C70.4698 129.924 70.5538 130.38 70.5538 130.892ZM69.6058 130.904C69.6058 130.536 69.5458 130.204 69.4258 129.908C69.3138 129.612 69.1578 129.36 68.9578 129.152C68.7578 128.936 68.5258 128.772 68.2618 128.66C67.9978 128.548 67.7178 128.492 67.4218 128.492C67.1338 128.492 66.8538 128.552 66.5818 128.672C66.3178 128.784 66.0778 128.944 65.8618 129.152C65.6538 129.36 65.4858 129.612 65.3578 129.908C65.2378 130.204 65.1778 130.532 65.1778 130.892C65.1778 131.252 65.2378 131.584 65.3578 131.888C65.4858 132.184 65.6538 132.436 65.8618 132.644C66.0778 132.852 66.3178 133.016 66.5818 133.136C66.8538 133.248 67.1338 133.304 67.4218 133.304C67.7178 133.304 67.9978 133.252 68.2618 133.148C68.5338 133.036 68.7658 132.88 68.9578 132.68C69.1578 132.472 69.3138 132.22 69.4258 131.924C69.5458 131.62 69.6058 131.28 69.6058 130.904ZM73.2666 134H72.3426V125.24H73.2666V134ZM81.4949 130.892C81.4949 131.332 81.4109 131.752 81.2429 132.152C81.0829 132.544 80.8589 132.888 80.5709 133.184C80.2829 133.48 79.9389 133.716 79.5389 133.892C79.1389 134.06 78.7069 134.144 78.2429 134.144C77.7789 134.144 77.3509 134.06 76.9589 133.892C76.5669 133.716 76.2269 133.484 75.9389 133.196C75.6509 132.9 75.4269 132.556 75.2669 132.164C75.1069 131.772 75.0269 131.356 75.0269 130.916C75.0269 130.476 75.1069 130.06 75.2669 129.668C75.4269 129.268 75.6509 128.92 75.9389 128.624C76.2269 128.328 76.5669 128.096 76.9589 127.928C77.3589 127.752 77.7949 127.664 78.2669 127.664C78.7309 127.664 79.1589 127.752 79.5509 127.928C79.9509 128.096 80.2949 128.328 80.5829 128.624C80.8709 128.912 81.0949 129.252 81.2549 129.644C81.4149 130.036 81.4949 130.452 81.4949 130.892ZM80.5469 130.916C80.5469 130.58 80.4869 130.264 80.3669 129.968C80.2549 129.672 80.0949 129.416 79.8869 129.2C79.6789 128.976 79.4349 128.8 79.1549 128.672C78.8749 128.544 78.5709 128.48 78.2429 128.48C77.9069 128.48 77.5989 128.544 77.3189 128.672C77.0389 128.792 76.7989 128.964 76.5989 129.188C76.4069 129.404 76.2549 129.66 76.1429 129.956C76.0309 130.244 75.9749 130.556 75.9749 130.892C75.9749 131.228 76.0309 131.544 76.1429 131.84C76.2629 132.136 76.4229 132.392 76.6229 132.608C76.8309 132.824 77.0749 132.996 77.3549 133.124C77.6349 133.252 77.9389 133.316 78.2669 133.316C78.6029 133.316 78.9109 133.256 79.1909 133.136C79.4709 133.008 79.7109 132.836 79.9109 132.62C80.1109 132.404 80.2669 132.152 80.3789 131.864C80.4909 131.568 80.5469 131.252 80.5469 130.916ZM85.4127 128.528C85.0447 128.528 84.7087 128.572 84.4047 128.66C84.1087 128.74 83.8167 128.848 83.5287 128.984L83.2527 128.228C83.5967 128.068 83.9447 127.944 84.2967 127.856C84.6487 127.76 85.0527 127.712 85.5087 127.712C86.3567 127.712 87.0087 127.924 87.4647 128.348C87.9207 128.764 88.1487 129.384 88.1487 130.208V134H87.2607V133.064C87.0447 133.344 86.7527 133.592 86.3847 133.808C86.0247 134.024 85.5687 134.132 85.0167 134.132C84.7287 134.132 84.4447 134.092 84.1647 134.012C83.8927 133.932 83.6447 133.812 83.4207 133.652C83.2047 133.484 83.0287 133.28 82.8927 133.04C82.7647 132.8 82.7007 132.516 82.7007 132.188C82.7007 131.86 82.7647 131.572 82.8927 131.324C83.0207 131.068 83.2007 130.856 83.4327 130.688C83.6727 130.52 83.9527 130.392 84.2727 130.304C84.6007 130.216 84.9607 130.172 85.3527 130.172C85.7527 130.172 86.1007 130.196 86.3967 130.244C86.6927 130.292 86.9807 130.356 87.2607 130.436V130.22C87.2607 129.66 87.0967 129.24 86.7687 128.96C86.4487 128.672 85.9967 128.528 85.4127 128.528ZM85.4487 130.856C84.8647 130.856 84.4167 130.972 84.1047 131.204C83.7927 131.436 83.6367 131.752 83.6367 132.152C83.6367 132.352 83.6767 132.528 83.7567 132.68C83.8447 132.832 83.9607 132.964 84.1047 133.076C84.2487 133.18 84.4127 133.26 84.5967 133.316C84.7887 133.372 84.9887 133.4 85.1967 133.4C85.4847 133.4 85.7527 133.36 86.0007 133.28C86.2567 133.192 86.4767 133.076 86.6607 132.932C86.8527 132.78 87.0007 132.604 87.1047 132.404C87.2167 132.196 87.2727 131.968 87.2727 131.72V131.12C87.0407 131.056 86.7727 130.996 86.4687 130.94C86.1727 130.884 85.8327 130.856 85.4487 130.856ZM96.0219 134H95.0979V132.752C94.9699 132.936 94.8259 133.112 94.6659 133.28C94.5139 133.448 94.3419 133.596 94.1499 133.724C93.9579 133.852 93.7419 133.952 93.5019 134.024C93.2699 134.096 93.0099 134.132 92.7219 134.132C92.3459 134.132 91.9819 134.06 91.6299 133.916C91.2779 133.772 90.9619 133.564 90.6819 133.292C90.4019 133.012 90.1779 132.672 90.0099 132.272C89.8419 131.872 89.7579 131.416 89.7579 130.904C89.7579 130.392 89.8419 129.936 90.0099 129.536C90.1779 129.136 90.4019 128.8 90.6819 128.528C90.9619 128.248 91.2779 128.036 91.6299 127.892C91.9819 127.74 92.3459 127.664 92.7219 127.664C93.0099 127.664 93.2739 127.7 93.5139 127.772C93.7539 127.844 93.9699 127.94 94.1619 128.06C94.3539 128.18 94.5259 128.32 94.6779 128.48C94.8379 128.64 94.9779 128.808 95.0979 128.984V125.24H96.0219V134ZM95.1339 130.892C95.1339 130.532 95.0699 130.204 94.9419 129.908C94.8219 129.612 94.6539 129.36 94.4379 129.152C94.2299 128.944 93.9899 128.784 93.7179 128.672C93.4539 128.552 93.1779 128.492 92.8899 128.492C92.5859 128.492 92.3019 128.548 92.0379 128.66C91.7739 128.764 91.5419 128.92 91.3419 129.128C91.1499 129.328 90.9939 129.58 90.8739 129.884C90.7619 130.18 90.7059 130.516 90.7059 130.892C90.7059 131.26 90.7619 131.592 90.8739 131.888C90.9939 132.184 91.1539 132.44 91.3539 132.656C91.5539 132.864 91.7859 133.024 92.0499 133.136C92.3139 133.248 92.5939 133.304 92.8899 133.304C93.1779 133.304 93.4539 133.248 93.7179 133.136C93.9899 133.016 94.2299 132.852 94.4379 132.644C94.6539 132.436 94.8219 132.184 94.9419 131.888C95.0699 131.584 95.1339 131.252 95.1339 130.892ZM102.68 134H101.576V132.74H102.68V134ZM109.719 132.944C109.407 133.296 109.051 133.584 108.651 133.808C108.259 134.032 107.771 134.144 107.187 134.144C106.731 134.144 106.307 134.06 105.915 133.892C105.531 133.716 105.195 133.484 104.907 133.196C104.627 132.9 104.407 132.556 104.247 132.164C104.087 131.772 104.007 131.356 104.007 130.916C104.007 130.476 104.087 130.06 104.247 129.668C104.407 129.268 104.627 128.92 104.907 128.624C105.195 128.328 105.531 128.096 105.915 127.928C106.307 127.752 106.731 127.664 107.187 127.664C107.483 127.664 107.751 127.692 107.991 127.748C108.231 127.804 108.451 127.884 108.651 127.988C108.851 128.084 109.035 128.2 109.203 128.336C109.371 128.472 109.527 128.616 109.671 128.768L109.059 129.416C108.811 129.16 108.539 128.94 108.243 128.756C107.955 128.572 107.599 128.48 107.175 128.48C106.863 128.48 106.571 128.544 106.299 128.672C106.027 128.792 105.791 128.964 105.591 129.188C105.391 129.404 105.235 129.66 105.123 129.956C105.011 130.244 104.955 130.556 104.955 130.892C104.955 131.228 105.011 131.544 105.123 131.84C105.243 132.136 105.403 132.396 105.603 132.62C105.811 132.836 106.051 133.008 106.323 133.136C106.603 133.256 106.907 133.316 107.235 133.316C107.635 133.316 107.987 133.228 108.291 133.052C108.603 132.876 108.883 132.656 109.131 132.392L109.719 132.944ZM115.507 132.26C115.507 132.556 115.447 132.82 115.327 133.052C115.215 133.276 115.059 133.468 114.859 133.628C114.667 133.788 114.435 133.912 114.163 134C113.899 134.08 113.611 134.12 113.299 134.12C112.851 134.12 112.399 134.04 111.943 133.88C111.487 133.712 111.083 133.488 110.731 133.208L111.199 132.548C111.535 132.804 111.883 133 112.243 133.136C112.611 133.272 112.979 133.34 113.347 133.34C113.723 133.34 114.031 133.252 114.271 133.076C114.511 132.9 114.631 132.66 114.631 132.356V132.332C114.631 132.18 114.587 132.048 114.499 131.936C114.419 131.824 114.307 131.728 114.163 131.648C114.019 131.56 113.851 131.484 113.659 131.42C113.475 131.356 113.283 131.296 113.083 131.24C112.843 131.168 112.599 131.092 112.351 131.012C112.111 130.924 111.891 130.816 111.691 130.688C111.499 130.56 111.339 130.4 111.211 130.208C111.091 130.016 111.031 129.776 111.031 129.488V129.464C111.031 129.2 111.083 128.96 111.187 128.744C111.291 128.52 111.435 128.332 111.619 128.18C111.811 128.02 112.035 127.9 112.291 127.82C112.555 127.732 112.839 127.688 113.143 127.688C113.527 127.688 113.915 127.752 114.307 127.88C114.699 128 115.055 128.164 115.375 128.372L114.955 129.068C114.667 128.884 114.363 128.74 114.043 128.636C113.731 128.524 113.423 128.468 113.119 128.468C112.751 128.468 112.459 128.556 112.243 128.732C112.027 128.9 111.919 129.112 111.919 129.368V129.392C111.919 129.536 111.963 129.664 112.051 129.776C112.139 129.88 112.255 129.972 112.399 130.052C112.551 130.132 112.723 130.204 112.915 130.268C113.107 130.332 113.307 130.396 113.515 130.46C113.755 130.532 113.991 130.612 114.223 130.7C114.463 130.788 114.679 130.9 114.871 131.036C115.063 131.172 115.215 131.336 115.327 131.528C115.447 131.72 115.507 131.956 115.507 132.236V132.26ZM119.485 132.944L121.585 127.796H122.581L119.881 134.048H119.065L116.377 127.796H117.397L119.485 132.944ZM128.89 127.82H130.858V128.612H128.902V134H127.978V128.612H127.126V127.808H127.978V127.268C127.978 126.588 128.138 126.072 128.458 125.72C128.786 125.368 129.25 125.192 129.85 125.192C130.066 125.192 130.25 125.204 130.402 125.228C130.562 125.252 130.718 125.292 130.87 125.348V126.152C130.702 126.104 130.55 126.068 130.414 126.044C130.278 126.012 130.13 125.996 129.97 125.996C129.25 125.996 128.89 126.436 128.89 127.316V127.82ZM133.116 126.44H132.06V125.42H133.116V126.44ZM133.044 134H132.12V127.796H133.044V134ZM136.196 134H135.272V125.24H136.196V134ZM138.893 131.24C138.925 131.576 139.005 131.876 139.133 132.14C139.261 132.396 139.425 132.616 139.625 132.8C139.825 132.976 140.049 133.112 140.297 133.208C140.545 133.296 140.805 133.34 141.077 133.34C141.509 133.34 141.877 133.26 142.181 133.1C142.493 132.94 142.777 132.728 143.033 132.464L143.609 132.98C143.297 133.332 142.941 133.616 142.541 133.832C142.141 134.04 141.645 134.144 141.053 134.144C140.629 134.144 140.229 134.068 139.853 133.916C139.477 133.756 139.149 133.536 138.869 133.256C138.589 132.968 138.365 132.624 138.197 132.224C138.037 131.824 137.957 131.384 137.957 130.904C137.957 130.456 138.029 130.036 138.173 129.644C138.325 129.244 138.533 128.9 138.797 128.612C139.061 128.316 139.373 128.084 139.733 127.916C140.101 127.748 140.501 127.664 140.933 127.664C141.389 127.664 141.797 127.752 142.157 127.928C142.517 128.096 142.821 128.328 143.069 128.624C143.317 128.92 143.505 129.268 143.633 129.668C143.761 130.068 143.825 130.496 143.825 130.952C143.825 130.992 143.825 131.036 143.825 131.084C143.825 131.132 143.821 131.184 143.813 131.24H138.893ZM138.893 130.556H142.889C142.865 130.276 142.805 130.008 142.709 129.752C142.621 129.496 142.493 129.272 142.325 129.08C142.165 128.888 141.965 128.736 141.725 128.624C141.493 128.504 141.221 128.444 140.909 128.444C140.637 128.444 140.385 128.5 140.153 128.612C139.921 128.716 139.717 128.864 139.541 129.056C139.365 129.24 139.221 129.46 139.109 129.716C138.997 129.972 138.925 130.252 138.893 130.556ZM150.288 128.612V132.236C150.288 132.62 150.384 132.888 150.576 133.04C150.768 133.192 151.02 133.268 151.332 133.268C151.492 133.268 151.64 133.252 151.776 133.22C151.92 133.188 152.072 133.132 152.232 133.052V133.844C152.072 133.932 151.9 133.996 151.716 134.036C151.54 134.084 151.34 134.108 151.116 134.108C150.868 134.108 150.636 134.076 150.42 134.012C150.204 133.948 150.016 133.848 149.856 133.712C149.704 133.568 149.584 133.384 149.496 133.16C149.408 132.936 149.364 132.668 149.364 132.356V128.612H148.5V127.796H149.364V125.924H150.288V127.796H152.256V128.612H150.288ZM159.8 130.892C159.8 131.332 159.716 131.752 159.548 132.152C159.388 132.544 159.164 132.888 158.876 133.184C158.588 133.48 158.244 133.716 157.844 133.892C157.444 134.06 157.012 134.144 156.548 134.144C156.084 134.144 155.656 134.06 155.264 133.892C154.872 133.716 154.532 133.484 154.244 133.196C153.956 132.9 153.732 132.556 153.572 132.164C153.412 131.772 153.332 131.356 153.332 130.916C153.332 130.476 153.412 130.06 153.572 129.668C153.732 129.268 153.956 128.92 154.244 128.624C154.532 128.328 154.872 128.096 155.264 127.928C155.664 127.752 156.1 127.664 156.572 127.664C157.036 127.664 157.464 127.752 157.856 127.928C158.256 128.096 158.6 128.328 158.888 128.624C159.176 128.912 159.4 129.252 159.56 129.644C159.72 130.036 159.8 130.452 159.8 130.892ZM158.852 130.916C158.852 130.58 158.792 130.264 158.672 129.968C158.56 129.672 158.4 129.416 158.192 129.2C157.984 128.976 157.74 128.8 157.46 128.672C157.18 128.544 156.876 128.48 156.548 128.48C156.212 128.48 155.904 128.544 155.624 128.672C155.344 128.792 155.104 128.964 154.904 129.188C154.712 129.404 154.56 129.66 154.448 129.956C154.336 130.244 154.28 130.556 154.28 130.892C154.28 131.228 154.336 131.544 154.448 131.84C154.568 132.136 154.728 132.392 154.928 132.608C155.136 132.824 155.38 132.996 155.66 133.124C155.94 133.252 156.244 133.316 156.572 133.316C156.908 133.316 157.216 133.256 157.496 133.136C157.776 133.008 158.016 132.836 158.216 132.62C158.416 132.404 158.572 132.152 158.684 131.864C158.796 131.568 158.852 131.252 158.852 130.916ZM170.399 132.944C170.087 133.296 169.731 133.584 169.331 133.808C168.939 134.032 168.451 134.144 167.867 134.144C167.411 134.144 166.987 134.06 166.595 133.892C166.211 133.716 165.875 133.484 165.587 133.196C165.307 132.9 165.087 132.556 164.927 132.164C164.767 131.772 164.687 131.356 164.687 130.916C164.687 130.476 164.767 130.06 164.927 129.668C165.087 129.268 165.307 128.92 165.587 128.624C165.875 128.328 166.211 128.096 166.595 127.928C166.987 127.752 167.411 127.664 167.867 127.664C168.163 127.664 168.431 127.692 168.671 127.748C168.911 127.804 169.131 127.884 169.331 127.988C169.531 128.084 169.715 128.2 169.883 128.336C170.051 128.472 170.207 128.616 170.351 128.768L169.739 129.416C169.491 129.16 169.219 128.94 168.923 128.756C168.635 128.572 168.279 128.48 167.855 128.48C167.543 128.48 167.251 128.544 166.979 128.672C166.707 128.792 166.471 128.964 166.271 129.188C166.071 129.404 165.915 129.66 165.803 129.956C165.691 130.244 165.635 130.556 165.635 130.892C165.635 131.228 165.691 131.544 165.803 131.84C165.923 132.136 166.083 132.396 166.283 132.62C166.491 132.836 166.731 133.008 167.003 133.136C167.283 133.256 167.587 133.316 167.915 133.316C168.315 133.316 168.667 133.228 168.971 133.052C169.283 132.876 169.563 132.656 169.811 132.392L170.399 132.944ZM172.851 131.528V134H171.927V127.796H172.851V129.416C172.963 129.16 173.103 128.924 173.271 128.708C173.439 128.492 173.631 128.308 173.847 128.156C174.063 127.996 174.299 127.876 174.555 127.796C174.811 127.716 175.087 127.68 175.383 127.688V128.684H175.311C174.975 128.684 174.655 128.744 174.351 128.864C174.055 128.984 173.795 129.164 173.571 129.404C173.347 129.644 173.171 129.944 173.043 130.304C172.915 130.656 172.851 131.064 172.851 131.528ZM177.072 131.24C177.104 131.576 177.184 131.876 177.312 132.14C177.44 132.396 177.604 132.616 177.804 132.8C178.004 132.976 178.228 133.112 178.476 133.208C178.724 133.296 178.984 133.34 179.256 133.34C179.688 133.34 180.056 133.26 180.36 133.1C180.672 132.94 180.956 132.728 181.212 132.464L181.788 132.98C181.476 133.332 181.12 133.616 180.72 133.832C180.32 134.04 179.824 134.144 179.232 134.144C178.808 134.144 178.408 134.068 178.032 133.916C177.656 133.756 177.328 133.536 177.048 133.256C176.768 132.968 176.544 132.624 176.376 132.224C176.216 131.824 176.136 131.384 176.136 130.904C176.136 130.456 176.208 130.036 176.352 129.644C176.504 129.244 176.712 128.9 176.976 128.612C177.24 128.316 177.552 128.084 177.912 127.916C178.28 127.748 178.68 127.664 179.112 127.664C179.568 127.664 179.976 127.752 180.336 127.928C180.696 128.096 181 128.328 181.248 128.624C181.496 128.92 181.684 129.268 181.812 129.668C181.94 130.068 182.004 130.496 182.004 130.952C182.004 130.992 182.004 131.036 182.004 131.084C182.004 131.132 182 131.184 181.992 131.24H177.072ZM177.072 130.556H181.068C181.044 130.276 180.984 130.008 180.888 129.752C180.8 129.496 180.672 129.272 180.504 129.08C180.344 128.888 180.144 128.736 179.904 128.624C179.672 128.504 179.4 128.444 179.088 128.444C178.816 128.444 178.564 128.5 178.332 128.612C178.1 128.716 177.896 128.864 177.72 129.056C177.544 129.24 177.4 129.46 177.288 129.716C177.176 129.972 177.104 130.252 177.072 130.556ZM185.866 128.528C185.498 128.528 185.162 128.572 184.858 128.66C184.562 128.74 184.27 128.848 183.982 128.984L183.706 128.228C184.05 128.068 184.398 127.944 184.75 127.856C185.102 127.76 185.506 127.712 185.962 127.712C186.81 127.712 187.462 127.924 187.918 128.348C188.374 128.764 188.602 129.384 188.602 130.208V134H187.714V133.064C187.498 133.344 187.206 133.592 186.838 133.808C186.478 134.024 186.022 134.132 185.47 134.132C185.182 134.132 184.898 134.092 184.618 134.012C184.346 133.932 184.098 133.812 183.874 133.652C183.658 133.484 183.482 133.28 183.346 133.04C183.218 132.8 183.154 132.516 183.154 132.188C183.154 131.86 183.218 131.572 183.346 131.324C183.474 131.068 183.654 130.856 183.886 130.688C184.126 130.52 184.406 130.392 184.726 130.304C185.054 130.216 185.414 130.172 185.806 130.172C186.206 130.172 186.554 130.196 186.85 130.244C187.146 130.292 187.434 130.356 187.714 130.436V130.22C187.714 129.66 187.55 129.24 187.222 128.96C186.902 128.672 186.45 128.528 185.866 128.528ZM185.902 130.856C185.318 130.856 184.87 130.972 184.558 131.204C184.246 131.436 184.09 131.752 184.09 132.152C184.09 132.352 184.13 132.528 184.21 132.68C184.298 132.832 184.414 132.964 184.558 133.076C184.702 133.18 184.866 133.26 185.05 133.316C185.242 133.372 185.442 133.4 185.65 133.4C185.938 133.4 186.206 133.36 186.454 133.28C186.71 133.192 186.93 133.076 187.114 132.932C187.306 132.78 187.454 132.604 187.558 132.404C187.67 132.196 187.726 131.968 187.726 131.72V131.12C187.494 131.056 187.226 130.996 186.922 130.94C186.626 130.884 186.286 130.856 185.902 130.856ZM191.76 128.612V132.236C191.76 132.62 191.856 132.888 192.048 133.04C192.24 133.192 192.492 133.268 192.804 133.268C192.964 133.268 193.112 133.252 193.248 133.22C193.392 133.188 193.544 133.132 193.704 133.052V133.844C193.544 133.932 193.372 133.996 193.188 134.036C193.012 134.084 192.812 134.108 192.588 134.108C192.34 134.108 192.108 134.076 191.892 134.012C191.676 133.948 191.488 133.848 191.328 133.712C191.176 133.568 191.056 133.384 190.968 133.16C190.88 132.936 190.836 132.668 190.836 132.356V128.612H189.972V127.796H190.836V125.924H191.76V127.796H193.728V128.612H191.76ZM195.74 131.24C195.772 131.576 195.852 131.876 195.98 132.14C196.108 132.396 196.272 132.616 196.472 132.8C196.672 132.976 196.896 133.112 197.144 133.208C197.392 133.296 197.652 133.34 197.924 133.34C198.356 133.34 198.724 133.26 199.028 133.1C199.34 132.94 199.624 132.728 199.88 132.464L200.456 132.98C200.144 133.332 199.788 133.616 199.388 133.832C198.988 134.04 198.492 134.144 197.9 134.144C197.476 134.144 197.076 134.068 196.7 133.916C196.324 133.756 195.996 133.536 195.716 133.256C195.436 132.968 195.212 132.624 195.044 132.224C194.884 131.824 194.804 131.384 194.804 130.904C194.804 130.456 194.876 130.036 195.02 129.644C195.172 129.244 195.38 128.9 195.644 128.612C195.908 128.316 196.22 128.084 196.58 127.916C196.948 127.748 197.348 127.664 197.78 127.664C198.236 127.664 198.644 127.752 199.004 127.928C199.364 128.096 199.668 128.328 199.916 128.624C200.164 128.92 200.352 129.268 200.48 129.668C200.608 130.068 200.672 130.496 200.672 130.952C200.672 130.992 200.672 131.036 200.672 131.084C200.672 131.132 200.668 131.184 200.66 131.24H195.74ZM195.74 130.556H199.736C199.712 130.276 199.652 130.008 199.556 129.752C199.468 129.496 199.34 129.272 199.172 129.08C199.012 128.888 198.812 128.736 198.572 128.624C198.34 128.504 198.068 128.444 197.756 128.444C197.484 128.444 197.232 128.5 197 128.612C196.768 128.716 196.564 128.864 196.388 129.056C196.212 129.24 196.068 129.46 195.956 129.716C195.844 129.972 195.772 130.252 195.74 130.556ZM212.151 130.892C212.151 131.404 212.067 131.86 211.899 132.26C211.731 132.66 211.507 133 211.227 133.28C210.955 133.552 210.639 133.764 210.279 133.916C209.927 134.06 209.563 134.132 209.187 134.132C208.899 134.132 208.635 134.096 208.395 134.024C208.155 133.952 207.939 133.856 207.747 133.736C207.555 133.616 207.379 133.476 207.219 133.316C207.067 133.156 206.931 132.988 206.811 132.812V134H205.887V125.24H206.811V129.044C206.939 128.86 207.079 128.684 207.231 128.516C207.391 128.348 207.567 128.204 207.759 128.084C207.951 127.956 208.163 127.856 208.395 127.784C208.635 127.704 208.899 127.664 209.187 127.664C209.555 127.664 209.915 127.736 210.267 127.88C210.627 128.024 210.947 128.236 211.227 128.516C211.507 128.788 211.731 129.124 211.899 129.524C212.067 129.924 212.151 130.38 212.151 130.892ZM211.203 130.904C211.203 130.536 211.143 130.204 211.023 129.908C210.911 129.612 210.755 129.36 210.555 129.152C210.355 128.936 210.123 128.772 209.859 128.66C209.595 128.548 209.315 128.492 209.019 128.492C208.731 128.492 208.451 128.552 208.179 128.672C207.915 128.784 207.675 128.944 207.459 129.152C207.251 129.36 207.083 129.612 206.955 129.908C206.835 130.204 206.775 130.532 206.775 130.892C206.775 131.252 206.835 131.584 206.955 131.888C207.083 132.184 207.251 132.436 207.459 132.644C207.675 132.852 207.915 133.016 208.179 133.136C208.451 133.248 208.731 133.304 209.019 133.304C209.315 133.304 209.595 133.252 209.859 133.148C210.131 133.036 210.363 132.88 210.555 132.68C210.755 132.472 210.911 132.22 211.023 131.924C211.143 131.62 211.203 131.28 211.203 130.904ZM218.26 131.348V127.796H219.172V134H218.26V132.92C218.052 133.256 217.78 133.544 217.444 133.784C217.108 134.016 216.672 134.132 216.136 134.132C215.76 134.132 215.424 134.072 215.128 133.952C214.84 133.832 214.592 133.664 214.384 133.448C214.184 133.224 214.028 132.96 213.916 132.656C213.812 132.352 213.76 132.016 213.76 131.648V127.796H214.684V131.42C214.684 131.996 214.832 132.452 215.128 132.788C215.424 133.124 215.848 133.292 216.4 133.292C216.664 133.292 216.908 133.248 217.132 133.16C217.364 133.064 217.56 132.932 217.72 132.764C217.888 132.588 218.02 132.38 218.116 132.14C218.212 131.9 218.26 131.636 218.26 131.348ZM222.259 134H221.335V125.24H222.259V134ZM227.223 130.46L229.911 134H228.807L226.587 131.108L225.327 132.38V134H224.403V125.24H225.327V131.288L228.675 127.796H229.827L227.223 130.46ZM232.231 134H231.127V132.74H232.231V134ZM304.014 128.528C303.646 128.528 303.31 128.572 303.006 128.66C302.71 128.74 302.418 128.848 302.13 128.984L301.854 128.228C302.198 128.068 302.546 127.944 302.898 127.856C303.25 127.76 303.654 127.712 304.11 127.712C304.958 127.712 305.61 127.924 306.066 128.348C306.522 128.764 306.75 129.384 306.75 130.208V134H305.862V133.064C305.646 133.344 305.354 133.592 304.986 133.808C304.626 134.024 304.17 134.132 303.618 134.132C303.33 134.132 303.046 134.092 302.766 134.012C302.494 133.932 302.246 133.812 302.022 133.652C301.806 133.484 301.63 133.28 301.494 133.04C301.366 132.8 301.302 132.516 301.302 132.188C301.302 131.86 301.366 131.572 301.494 131.324C301.622 131.068 301.802 130.856 302.034 130.688C302.274 130.52 302.554 130.392 302.874 130.304C303.202 130.216 303.562 130.172 303.954 130.172C304.354 130.172 304.702 130.196 304.998 130.244C305.294 130.292 305.582 130.356 305.862 130.436V130.22C305.862 129.66 305.698 129.24 305.37 128.96C305.05 128.672 304.598 128.528 304.014 128.528ZM304.05 130.856C303.466 130.856 303.018 130.972 302.706 131.204C302.394 131.436 302.238 131.752 302.238 132.152C302.238 132.352 302.278 132.528 302.358 132.68C302.446 132.832 302.562 132.964 302.706 133.076C302.85 133.18 303.014 133.26 303.198 133.316C303.39 133.372 303.59 133.4 303.798 133.4C304.086 133.4 304.354 133.36 304.602 133.28C304.858 133.192 305.078 133.076 305.262 132.932C305.454 132.78 305.602 132.604 305.706 132.404C305.818 132.196 305.874 131.968 305.874 131.72V131.12C305.642 131.056 305.374 130.996 305.07 130.94C304.774 130.884 304.434 130.856 304.05 130.856ZM316.577 132.26C316.577 132.556 316.517 132.82 316.397 133.052C316.285 133.276 316.129 133.468 315.929 133.628C315.737 133.788 315.505 133.912 315.233 134C314.969 134.08 314.681 134.12 314.369 134.12C313.921 134.12 313.469 134.04 313.013 133.88C312.557 133.712 312.153 133.488 311.801 133.208L312.269 132.548C312.605 132.804 312.953 133 313.313 133.136C313.681 133.272 314.049 133.34 314.417 133.34C314.793 133.34 315.101 133.252 315.341 133.076C315.581 132.9 315.701 132.66 315.701 132.356V132.332C315.701 132.18 315.657 132.048 315.569 131.936C315.489 131.824 315.377 131.728 315.233 131.648C315.089 131.56 314.921 131.484 314.729 131.42C314.545 131.356 314.353 131.296 314.153 131.24C313.913 131.168 313.669 131.092 313.421 131.012C313.181 130.924 312.961 130.816 312.761 130.688C312.569 130.56 312.409 130.4 312.281 130.208C312.161 130.016 312.101 129.776 312.101 129.488V129.464C312.101 129.2 312.153 128.96 312.257 128.744C312.361 128.52 312.505 128.332 312.689 128.18C312.881 128.02 313.105 127.9 313.361 127.82C313.625 127.732 313.909 127.688 314.213 127.688C314.597 127.688 314.985 127.752 315.377 127.88C315.769 128 316.125 128.164 316.445 128.372L316.025 129.068C315.737 128.884 315.433 128.74 315.113 128.636C314.801 128.524 314.493 128.468 314.189 128.468C313.821 128.468 313.529 128.556 313.313 128.732C313.097 128.9 312.989 129.112 312.989 129.368V129.392C312.989 129.536 313.033 129.664 313.121 129.776C313.209 129.88 313.325 129.972 313.469 130.052C313.621 130.132 313.793 130.204 313.985 130.268C314.177 130.332 314.377 130.396 314.585 130.46C314.825 130.532 315.061 130.612 315.293 130.7C315.533 130.788 315.749 130.9 315.941 131.036C316.133 131.172 316.285 131.336 316.397 131.528C316.517 131.72 316.577 131.956 316.577 132.236V132.26ZM320.538 128.528C320.17 128.528 319.834 128.572 319.53 128.66C319.234 128.74 318.942 128.848 318.654 128.984L318.378 128.228C318.722 128.068 319.07 127.944 319.422 127.856C319.774 127.76 320.178 127.712 320.634 127.712C321.482 127.712 322.134 127.924 322.59 128.348C323.046 128.764 323.274 129.384 323.274 130.208V134H322.386V133.064C322.17 133.344 321.878 133.592 321.51 133.808C321.15 134.024 320.694 134.132 320.142 134.132C319.854 134.132 319.57 134.092 319.29 134.012C319.018 133.932 318.77 133.812 318.546 133.652C318.33 133.484 318.154 133.28 318.018 133.04C317.89 132.8 317.826 132.516 317.826 132.188C317.826 131.86 317.89 131.572 318.018 131.324C318.146 131.068 318.326 130.856 318.558 130.688C318.798 130.52 319.078 130.392 319.398 130.304C319.726 130.216 320.086 130.172 320.478 130.172C320.878 130.172 321.226 130.196 321.522 130.244C321.818 130.292 322.106 130.356 322.386 130.436V130.22C322.386 129.66 322.222 129.24 321.894 128.96C321.574 128.672 321.122 128.528 320.538 128.528ZM320.574 130.856C319.99 130.856 319.542 130.972 319.23 131.204C318.918 131.436 318.762 131.752 318.762 132.152C318.762 132.352 318.802 132.528 318.882 132.68C318.97 132.832 319.086 132.964 319.23 133.076C319.374 133.18 319.538 133.26 319.722 133.316C319.914 133.372 320.114 133.4 320.322 133.4C320.61 133.4 320.878 133.36 321.126 133.28C321.382 133.192 321.602 133.076 321.786 132.932C321.978 132.78 322.126 132.604 322.23 132.404C322.342 132.196 322.398 131.968 322.398 131.72V131.12C322.166 131.056 321.898 130.996 321.594 130.94C321.298 130.884 320.958 130.856 320.574 130.856ZM330.163 128.9C330.275 128.732 330.399 128.572 330.535 128.42C330.679 128.268 330.839 128.136 331.015 128.024C331.191 127.912 331.387 127.824 331.603 127.76C331.827 127.696 332.075 127.664 332.347 127.664C333.067 127.664 333.631 127.888 334.039 128.336C334.447 128.776 334.651 129.384 334.651 130.16V134H333.727V130.376C333.727 129.776 333.583 129.316 333.295 128.996C333.015 128.668 332.623 128.504 332.119 128.504C331.887 128.504 331.667 128.548 331.459 128.636C331.251 128.716 331.067 128.84 330.907 129.008C330.755 129.168 330.631 129.368 330.535 129.608C330.447 129.848 330.403 130.12 330.403 130.424V134H329.491V130.352C329.491 129.768 329.347 129.316 329.059 128.996C328.779 128.668 328.391 128.504 327.895 128.504C327.647 128.504 327.419 128.552 327.211 128.648C327.003 128.744 326.819 128.88 326.659 129.056C326.507 129.232 326.387 129.44 326.299 129.68C326.211 129.912 326.167 130.172 326.167 130.46V134H325.243V127.796H326.167V128.84C326.271 128.688 326.383 128.54 326.503 128.396C326.631 128.252 326.775 128.128 326.935 128.024C327.095 127.912 327.275 127.824 327.475 127.76C327.675 127.696 327.907 127.664 328.171 127.664C328.675 127.664 329.091 127.784 329.419 128.024C329.747 128.256 329.995 128.548 330.163 128.9ZM342.921 130.892C342.921 131.404 342.837 131.86 342.669 132.26C342.501 132.66 342.277 133 341.997 133.28C341.725 133.552 341.409 133.764 341.049 133.916C340.697 134.06 340.333 134.132 339.957 134.132C339.669 134.132 339.405 134.096 339.165 134.024C338.925 133.952 338.709 133.856 338.517 133.736C338.325 133.616 338.149 133.476 337.989 133.316C337.837 133.156 337.701 132.988 337.581 132.812V135.92H336.657V127.796H337.581V129.044C337.709 128.86 337.849 128.684 338.001 128.516C338.161 128.348 338.337 128.204 338.529 128.084C338.721 127.956 338.933 127.856 339.165 127.784C339.405 127.704 339.669 127.664 339.957 127.664C340.325 127.664 340.685 127.736 341.037 127.88C341.397 128.024 341.717 128.236 341.997 128.516C342.277 128.788 342.501 129.124 342.669 129.524C342.837 129.924 342.921 130.38 342.921 130.892ZM341.973 130.904C341.973 130.536 341.913 130.204 341.793 129.908C341.681 129.612 341.525 129.36 341.325 129.152C341.125 128.936 340.893 128.772 340.629 128.66C340.365 128.548 340.085 128.492 339.789 128.492C339.501 128.492 339.221 128.552 338.949 128.672C338.685 128.784 338.445 128.944 338.229 129.152C338.021 129.36 337.853 129.612 337.725 129.908C337.605 130.204 337.545 130.532 337.545 130.892C337.545 131.252 337.605 131.584 337.725 131.888C337.853 132.184 338.021 132.436 338.229 132.644C338.445 132.852 338.685 133.016 338.949 133.136C339.221 133.248 339.501 133.304 339.789 133.304C340.085 133.304 340.365 133.252 340.629 133.148C340.901 133.036 341.133 132.88 341.325 132.68C341.525 132.472 341.681 132.22 341.793 131.924C341.913 131.62 341.973 131.28 341.973 130.904ZM345.634 134H344.71V125.24H345.634V134ZM348.33 131.24C348.362 131.576 348.442 131.876 348.57 132.14C348.698 132.396 348.862 132.616 349.062 132.8C349.262 132.976 349.486 133.112 349.734 133.208C349.982 133.296 350.242 133.34 350.514 133.34C350.946 133.34 351.314 133.26 351.618 133.1C351.93 132.94 352.214 132.728 352.47 132.464L353.046 132.98C352.734 133.332 352.378 133.616 351.978 133.832C351.578 134.04 351.082 134.144 350.49 134.144C350.066 134.144 349.666 134.068 349.29 133.916C348.914 133.756 348.586 133.536 348.306 133.256C348.026 132.968 347.802 132.624 347.634 132.224C347.474 131.824 347.394 131.384 347.394 130.904C347.394 130.456 347.466 130.036 347.61 129.644C347.762 129.244 347.97 128.9 348.234 128.612C348.498 128.316 348.81 128.084 349.17 127.916C349.538 127.748 349.938 127.664 350.37 127.664C350.826 127.664 351.234 127.752 351.594 127.928C351.954 128.096 352.258 128.328 352.506 128.624C352.754 128.92 352.942 129.268 353.07 129.668C353.198 130.068 353.262 130.496 353.262 130.952C353.262 130.992 353.262 131.036 353.262 131.084C353.262 131.132 353.258 131.184 353.25 131.24H348.33ZM348.33 130.556H352.326C352.302 130.276 352.242 130.008 352.146 129.752C352.058 129.496 351.93 129.272 351.762 129.08C351.602 128.888 351.402 128.736 351.162 128.624C350.93 128.504 350.658 128.444 350.346 128.444C350.074 128.444 349.822 128.5 349.59 128.612C349.358 128.716 349.154 128.864 348.978 129.056C348.802 129.24 348.658 129.46 348.546 129.716C348.434 129.972 348.362 130.252 348.33 130.556ZM188.423 152.944C188.111 153.296 187.755 153.584 187.355 153.808C186.963 154.032 186.475 154.144 185.891 154.144C185.435 154.144 185.011 154.06 184.619 153.892C184.235 153.716 183.899 153.484 183.611 153.196C183.331 152.9 183.111 152.556 182.951 152.164C182.791 151.772 182.711 151.356 182.711 150.916C182.711 150.476 182.791 150.06 182.951 149.668C183.111 149.268 183.331 148.92 183.611 148.624C183.899 148.328 184.235 148.096 184.619 147.928C185.011 147.752 185.435 147.664 185.891 147.664C186.187 147.664 186.455 147.692 186.695 147.748C186.935 147.804 187.155 147.884 187.355 147.988C187.555 148.084 187.739 148.2 187.907 148.336C188.075 148.472 188.231 148.616 188.375 148.768L187.763 149.416C187.515 149.16 187.243 148.94 186.947 148.756C186.659 148.572 186.303 148.48 185.879 148.48C185.567 148.48 185.275 148.544 185.003 148.672C184.731 148.792 184.495 148.964 184.295 149.188C184.095 149.404 183.939 149.66 183.826 149.956C183.715 150.244 183.659 150.556 183.659 150.892C183.659 151.228 183.715 151.544 183.826 151.84C183.947 152.136 184.107 152.396 184.307 152.62C184.515 152.836 184.755 153.008 185.027 153.136C185.307 153.256 185.611 153.316 185.939 153.316C186.339 153.316 186.691 153.228 186.995 153.052C187.307 152.876 187.587 152.656 187.835 152.392L188.423 152.944ZM194.21 152.26C194.21 152.556 194.15 152.82 194.03 153.052C193.918 153.276 193.762 153.468 193.562 153.628C193.37 153.788 193.138 153.912 192.866 154C192.602 154.08 192.314 154.12 192.002 154.12C191.554 154.12 191.102 154.04 190.646 153.88C190.19 153.712 189.786 153.488 189.434 153.208L189.902 152.548C190.238 152.804 190.586 153 190.946 153.136C191.314 153.272 191.682 153.34 192.05 153.34C192.426 153.34 192.734 153.252 192.974 153.076C193.214 152.9 193.334 152.66 193.334 152.356V152.332C193.334 152.18 193.29 152.048 193.202 151.936C193.122 151.824 193.01 151.728 192.866 151.648C192.722 151.56 192.554 151.484 192.362 151.42C192.178 151.356 191.986 151.296 191.786 151.24C191.546 151.168 191.302 151.092 191.054 151.012C190.814 150.924 190.594 150.816 190.394 150.688C190.202 150.56 190.042 150.4 189.914 150.208C189.794 150.016 189.734 149.776 189.734 149.488V149.464C189.734 149.2 189.786 148.96 189.89 148.744C189.994 148.52 190.138 148.332 190.322 148.18C190.514 148.02 190.738 147.9 190.994 147.82C191.258 147.732 191.542 147.688 191.846 147.688C192.23 147.688 192.618 147.752 193.01 147.88C193.402 148 193.758 148.164 194.078 148.372L193.658 149.068C193.37 148.884 193.066 148.74 192.746 148.636C192.434 148.524 192.126 148.468 191.822 148.468C191.454 148.468 191.162 148.556 190.946 148.732C190.73 148.9 190.622 149.112 190.622 149.368V149.392C190.622 149.536 190.666 149.664 190.754 149.776C190.842 149.88 190.958 149.972 191.102 150.052C191.254 150.132 191.426 150.204 191.618 150.268C191.81 150.332 192.01 150.396 192.218 150.46C192.458 150.532 192.694 150.612 192.926 150.7C193.166 150.788 193.382 150.9 193.574 151.036C193.766 151.172 193.918 151.336 194.03 151.528C194.15 151.72 194.21 151.956 194.21 152.236V152.26ZM198.188 152.944L200.288 147.796H201.284L198.584 154.048H197.768L195.08 147.796H196.1L198.188 152.944ZM207.593 147.82H209.561V148.612H207.605V154H206.681V148.612H205.829V147.808H206.681V147.268C206.681 146.588 206.841 146.072 207.161 145.72C207.489 145.368 207.953 145.192 208.553 145.192C208.769 145.192 208.953 145.204 209.105 145.228C209.265 145.252 209.421 145.292 209.573 145.348V146.152C209.405 146.104 209.253 146.068 209.117 146.044C208.981 146.012 208.833 145.996 208.673 145.996C207.953 145.996 207.593 146.436 207.593 147.316V147.82ZM211.819 146.44H210.763V145.42H211.819V146.44ZM211.747 154H210.823V147.796H211.747V154ZM214.899 154H213.975V145.24H214.899V154ZM217.596 151.24C217.628 151.576 217.708 151.876 217.836 152.14C217.964 152.396 218.128 152.616 218.328 152.8C218.528 152.976 218.752 153.112 219 153.208C219.248 153.296 219.508 153.34 219.78 153.34C220.212 153.34 220.58 153.26 220.884 153.1C221.196 152.94 221.48 152.728 221.736 152.464L222.312 152.98C222 153.332 221.644 153.616 221.244 153.832C220.844 154.04 220.348 154.144 219.756 154.144C219.332 154.144 218.932 154.068 218.556 153.916C218.18 153.756 217.852 153.536 217.572 153.256C217.292 152.968 217.068 152.624 216.9 152.224C216.74 151.824 216.66 151.384 216.66 150.904C216.66 150.456 216.732 150.036 216.876 149.644C217.028 149.244 217.236 148.9 217.5 148.612C217.764 148.316 218.076 148.084 218.436 147.916C218.804 147.748 219.204 147.664 219.636 147.664C220.092 147.664 220.5 147.752 220.86 147.928C221.22 148.096 221.524 148.328 221.772 148.624C222.02 148.92 222.208 149.268 222.336 149.668C222.464 150.068 222.528 150.496 222.528 150.952C222.528 150.992 222.528 151.036 222.528 151.084C222.528 151.132 222.524 151.184 222.516 151.24H217.596ZM217.596 150.556H221.592C221.568 150.276 221.508 150.008 221.412 149.752C221.324 149.496 221.196 149.272 221.028 149.08C220.868 148.888 220.668 148.736 220.428 148.624C220.196 148.504 219.924 148.444 219.612 148.444C219.34 148.444 219.088 148.5 218.856 148.612C218.624 148.716 218.42 148.864 218.244 149.056C218.068 149.24 217.924 149.46 217.812 149.716C217.7 149.972 217.628 150.252 217.596 150.556ZM225.024 154H223.92V152.74H225.024V154Z" fill="#8D8D8D"/>
<path d="M245.31 129.788C245.31 130.38 245.202 130.936 244.986 131.456C244.77 131.968 244.462 132.412 244.062 132.788C243.67 133.164 243.198 133.46 242.646 133.676C242.102 133.892 241.502 134 240.846 134H237.93V125.6H240.846C241.502 125.6 242.102 125.708 242.646 125.924C243.198 126.132 243.67 126.424 244.062 126.8C244.462 127.176 244.77 127.62 244.986 128.132C245.202 128.644 245.31 129.196 245.31 129.788ZM244.326 129.812C244.326 129.348 244.242 128.912 244.074 128.504C243.914 128.096 243.682 127.744 243.378 127.448C243.082 127.144 242.718 126.908 242.286 126.74C241.854 126.564 241.374 126.476 240.846 126.476H238.878V133.124H240.846C241.374 133.124 241.854 133.04 242.286 132.872C242.718 132.704 243.082 132.472 243.378 132.176C243.682 131.872 243.914 131.52 244.074 131.12C244.242 130.72 244.326 130.284 244.326 129.812ZM253.245 130.892C253.245 131.332 253.161 131.752 252.993 132.152C252.833 132.544 252.609 132.888 252.321 133.184C252.033 133.48 251.689 133.716 251.289 133.892C250.889 134.06 250.457 134.144 249.993 134.144C249.529 134.144 249.101 134.06 248.709 133.892C248.317 133.716 247.977 133.484 247.689 133.196C247.401 132.9 247.177 132.556 247.017 132.164C246.857 131.772 246.777 131.356 246.777 130.916C246.777 130.476 246.857 130.06 247.017 129.668C247.177 129.268 247.401 128.92 247.689 128.624C247.977 128.328 248.317 128.096 248.709 127.928C249.109 127.752 249.545 127.664 250.017 127.664C250.481 127.664 250.909 127.752 251.301 127.928C251.701 128.096 252.045 128.328 252.333 128.624C252.621 128.912 252.845 129.252 253.005 129.644C253.165 130.036 253.245 130.452 253.245 130.892ZM252.297 130.916C252.297 130.58 252.237 130.264 252.117 129.968C252.005 129.672 251.845 129.416 251.637 129.2C251.429 128.976 251.185 128.8 250.905 128.672C250.625 128.544 250.321 128.48 249.993 128.48C249.657 128.48 249.349 128.544 249.069 128.672C248.789 128.792 248.549 128.964 248.349 129.188C248.157 129.404 248.005 129.66 247.893 129.956C247.781 130.244 247.725 130.556 247.725 130.892C247.725 131.228 247.781 131.544 247.893 131.84C248.013 132.136 248.173 132.392 248.373 132.608C248.581 132.824 248.825 132.996 249.105 133.124C249.385 133.252 249.689 133.316 250.017 133.316C250.353 133.316 250.661 133.256 250.941 133.136C251.221 133.008 251.461 132.836 251.661 132.62C251.861 132.404 252.017 132.152 252.129 131.864C252.241 131.568 252.297 131.252 252.297 130.916ZM259.138 127.772L260.818 132.776L262.45 127.796H263.41L261.226 134.048H260.422L258.754 129.152L257.074 134.048H256.258L254.086 127.796H255.07L256.702 132.776L258.37 127.772H259.138ZM265.874 130.448V134H264.95V127.796H265.874V128.876C266.082 128.54 266.354 128.256 266.69 128.024C267.026 127.784 267.462 127.664 267.998 127.664C268.374 127.664 268.706 127.724 268.994 127.844C269.29 127.964 269.538 128.136 269.738 128.36C269.946 128.576 270.102 128.836 270.206 129.14C270.318 129.444 270.374 129.78 270.374 130.148V134H269.45V130.376C269.45 129.8 269.302 129.344 269.006 129.008C268.71 128.672 268.286 128.504 267.734 128.504C267.47 128.504 267.222 128.552 266.99 128.648C266.766 128.736 266.57 128.868 266.402 129.044C266.234 129.212 266.102 129.416 266.006 129.656C265.918 129.896 265.874 130.16 265.874 130.448ZM273.353 134H272.429V125.24H273.353V134ZM281.581 130.892C281.581 131.332 281.497 131.752 281.329 132.152C281.169 132.544 280.945 132.888 280.657 133.184C280.369 133.48 280.025 133.716 279.625 133.892C279.225 134.06 278.793 134.144 278.329 134.144C277.865 134.144 277.437 134.06 277.045 133.892C276.653 133.716 276.313 133.484 276.025 133.196C275.737 132.9 275.513 132.556 275.353 132.164C275.193 131.772 275.113 131.356 275.113 130.916C275.113 130.476 275.193 130.06 275.353 129.668C275.513 129.268 275.737 128.92 276.025 128.624C276.313 128.328 276.653 128.096 277.045 127.928C277.445 127.752 277.881 127.664 278.353 127.664C278.817 127.664 279.245 127.752 279.637 127.928C280.037 128.096 280.381 128.328 280.669 128.624C280.957 128.912 281.181 129.252 281.341 129.644C281.501 130.036 281.581 130.452 281.581 130.892ZM280.633 130.916C280.633 130.58 280.573 130.264 280.453 129.968C280.341 129.672 280.181 129.416 279.973 129.2C279.765 128.976 279.521 128.8 279.241 128.672C278.961 128.544 278.657 128.48 278.329 128.48C277.993 128.48 277.685 128.544 277.405 128.672C277.125 128.792 276.885 128.964 276.685 129.188C276.493 129.404 276.341 129.66 276.229 129.956C276.117 130.244 276.061 130.556 276.061 130.892C276.061 131.228 276.117 131.544 276.229 131.84C276.349 132.136 276.509 132.392 276.709 132.608C276.917 132.824 277.161 132.996 277.441 133.124C277.721 133.252 278.025 133.316 278.353 133.316C278.689 133.316 278.997 133.256 279.277 133.136C279.557 133.008 279.797 132.836 279.997 132.62C280.197 132.404 280.353 132.152 280.465 131.864C280.577 131.568 280.633 131.252 280.633 130.916ZM285.499 128.528C285.131 128.528 284.795 128.572 284.491 128.66C284.195 128.74 283.903 128.848 283.615 128.984L283.339 128.228C283.683 128.068 284.031 127.944 284.383 127.856C284.735 127.76 285.139 127.712 285.595 127.712C286.443 127.712 287.095 127.924 287.551 128.348C288.007 128.764 288.235 129.384 288.235 130.208V134H287.347V133.064C287.131 133.344 286.839 133.592 286.471 133.808C286.111 134.024 285.655 134.132 285.103 134.132C284.815 134.132 284.531 134.092 284.251 134.012C283.979 133.932 283.731 133.812 283.507 133.652C283.291 133.484 283.115 133.28 282.979 133.04C282.851 132.8 282.787 132.516 282.787 132.188C282.787 131.86 282.851 131.572 282.979 131.324C283.107 131.068 283.287 130.856 283.519 130.688C283.759 130.52 284.039 130.392 284.359 130.304C284.687 130.216 285.047 130.172 285.439 130.172C285.839 130.172 286.187 130.196 286.483 130.244C286.779 130.292 287.067 130.356 287.347 130.436V130.22C287.347 129.66 287.183 129.24 286.855 128.96C286.535 128.672 286.083 128.528 285.499 128.528ZM285.535 130.856C284.951 130.856 284.503 130.972 284.191 131.204C283.879 131.436 283.723 131.752 283.723 132.152C283.723 132.352 283.763 132.528 283.843 132.68C283.931 132.832 284.047 132.964 284.191 133.076C284.335 133.18 284.499 133.26 284.683 133.316C284.875 133.372 285.075 133.4 285.283 133.4C285.571 133.4 285.839 133.36 286.087 133.28C286.343 133.192 286.563 133.076 286.747 132.932C286.939 132.78 287.087 132.604 287.191 132.404C287.303 132.196 287.359 131.968 287.359 131.72V131.12C287.127 131.056 286.859 130.996 286.555 130.94C286.259 130.884 285.919 130.856 285.535 130.856ZM296.108 134H295.184V132.752C295.056 132.936 294.912 133.112 294.752 133.28C294.6 133.448 294.428 133.596 294.236 133.724C294.044 133.852 293.828 133.952 293.588 134.024C293.356 134.096 293.096 134.132 292.808 134.132C292.432 134.132 292.068 134.06 291.716 133.916C291.364 133.772 291.048 133.564 290.768 133.292C290.488 133.012 290.264 132.672 290.096 132.272C289.928 131.872 289.844 131.416 289.844 130.904C289.844 130.392 289.928 129.936 290.096 129.536C290.264 129.136 290.488 128.8 290.768 128.528C291.048 128.248 291.364 128.036 291.716 127.892C292.068 127.74 292.432 127.664 292.808 127.664C293.096 127.664 293.36 127.7 293.6 127.772C293.84 127.844 294.056 127.94 294.248 128.06C294.44 128.18 294.612 128.32 294.764 128.48C294.924 128.64 295.064 128.808 295.184 128.984V125.24H296.108V134ZM295.22 130.892C295.22 130.532 295.156 130.204 295.028 129.908C294.908 129.612 294.74 129.36 294.524 129.152C294.316 128.944 294.076 128.784 293.804 128.672C293.54 128.552 293.264 128.492 292.976 128.492C292.672 128.492 292.388 128.548 292.124 128.66C291.86 128.764 291.628 128.92 291.428 129.128C291.236 129.328 291.08 129.58 290.96 129.884C290.848 130.18 290.792 130.516 290.792 130.892C290.792 131.26 290.848 131.592 290.96 131.888C291.08 132.184 291.24 132.44 291.44 132.656C291.64 132.864 291.872 133.024 292.136 133.136C292.4 133.248 292.68 133.304 292.976 133.304C293.264 133.304 293.54 133.248 293.804 133.136C294.076 133.016 294.316 132.852 294.524 132.644C294.74 132.436 294.908 132.184 295.028 131.888C295.156 131.584 295.22 131.252 295.22 130.892Z" fill="#FDB815"/>
<circle cx="204" cy="58" r="30" fill="#E0E0E0"/>
<mask id="mask0_4208_3570" style="mask-type:alpha" maskUnits="userSpaceOnUse" x="179" y="33" width="50" height="50">
<rect x="179" y="33" width="50" height="50" fill="#4F4F4F"/>
</mask>
<g mask="url(#mask0_4208_3570)">
<path d="M202.437 65.8926V48.3925L197.301 53.5287L195.106 51.2692L204 42.375L212.894 51.2692L210.699 53.5287L205.562 48.3925V65.8926H202.437ZM192.141 73.6249C191.089 73.6249 190.198 73.2603 189.469 72.5311C188.74 71.802 188.375 70.9112 188.375 69.8589V64.2099H191.5V69.8589C191.5 70.0191 191.567 70.1661 191.7 70.2996C191.834 70.4332 191.981 70.4999 192.141 70.4999H215.859C216.019 70.4999 216.166 70.4332 216.3 70.2996C216.433 70.1661 216.5 70.0191 216.5 69.8589V64.2099H219.625V69.8589C219.625 70.9112 219.26 71.802 218.531 72.5311C217.802 73.2603 216.911 73.6249 215.859 73.6249H192.141Z" fill="#4F4F4F"/>
</g>
<defs>
<filter id="filter0_d_4208_3570" x="0" y="0" width="408" height="193" filterUnits="userSpaceOnUse" color-interpolation-filters="sRGB">
<feFlood flood-opacity="0" result="BackgroundImageFix"/>
<feColorMatrix in="SourceAlpha" type="matrix" values="0 0 0 0 0 0 0 0 0 0 0 0 0 0 0 0 0 0 127 0" result="hardAlpha"/>
<feOffset dy="4"/>
<feGaussianBlur stdDeviation="2"/>
<feComposite in2="hardAlpha" operator="out"/>
<feColorMatrix type="matrix" values="0 0 0 0 0.82886 0 0 0 0 0.82886 0 0 0 0 0.82886 0 0 0 0.25 0"/>
<feBlend mode="normal" in2="BackgroundImageFix" result="effect1_dropShadow_4208_3570"/>
<feBlend mode="normal" in="SourceGraphic" in2="effect1_dropShadow_4208_3570" result="shape"/>
</filter>
</defs>
</svg>
