<svg width="57" height="56" viewBox="0 0 57 56" fill="none" xmlns="http://www.w3.org/2000/svg">
<rect x="0.666687" width="56" height="56" rx="4" fill="#7C2EBF"/>
<mask id="mask0_9080_2092" style="mask-type:alpha" maskUnits="userSpaceOnUse" x="8" y="8" width="41" height="40">
<rect x="8.66669" y="8" width="40" height="40" fill="#D9D9D9"/>
</mask>
<g mask="url(#mask0_9080_2092)">
<path d="M34.2917 31.5418L35.5834 26.8751C35.6945 26.5418 35.6875 26.2084 35.5625 25.8751C35.4375 25.5418 35.2222 25.264 34.9167 25.0418L30.9583 22.3334C30.7361 22.1668 30.4931 22.132 30.2292 22.2293C29.9653 22.3265 29.7917 22.514 29.7083 22.7918L28.4167 27.4584C28.3056 27.7918 28.3125 28.1251 28.4375 28.4584C28.5625 28.7918 28.7778 29.0695 29.0833 29.2918L33.0417 32.0001C33.2639 32.1668 33.507 32.2015 33.7709 32.1043C34.0347 32.007 34.2084 31.8195 34.2917 31.5418ZM15.3333 39.3751L13.9583 38.7084C13.0972 38.3473 12.5139 37.7293 12.2084 36.8543C11.9028 35.9793 11.9445 35.1112 12.3334 34.2501L15.3333 27.7501V39.3751ZM22 43.0001C21.0833 43.0001 20.2986 42.6668 19.6458 42.0001C18.9931 41.3334 18.6667 40.5418 18.6667 39.6251V29.6668L23.125 41.9168C23.2084 42.1112 23.2778 42.2987 23.3334 42.4793C23.3889 42.6598 23.4861 42.8334 23.625 43.0001H22ZM30.5833 42.7918C29.7222 43.0973 28.8611 43.0556 28 42.6668C27.1389 42.2779 26.5556 41.6529 26.25 40.7918L18.875 20.4168C18.5695 19.5556 18.6111 18.7015 19 17.8543C19.3889 17.007 20.0139 16.4306 20.875 16.1251L33.4167 11.5418C34.2778 11.2362 35.132 11.2779 35.9792 11.6668C36.8264 12.0556 37.4028 12.6806 37.7084 13.5418L45.125 33.9168C45.4306 34.7779 45.3889 35.632 45 36.4793C44.6111 37.3265 43.9861 37.9029 43.125 38.2084L30.5833 42.7918Z" fill="white"/>
</g>
</svg>
