<svg width="56" height="56" viewBox="0 0 56 56" fill="none" xmlns="http://www.w3.org/2000/svg">
<rect width="56" height="56" rx="4" fill="#C87DFE"/>
<mask id="mask0_9080_2100" style="mask-type:alpha" maskUnits="userSpaceOnUse" x="8" y="8" width="40" height="40">
<rect x="8" y="8" width="40" height="40" fill="#D9D9D9"/>
</mask>
<g mask="url(#mask0_9080_2100)">
<path d="M20.375 23.7917L26.5833 13.6667C26.75 13.3889 26.9583 13.1875 27.2083 13.0625C27.4583 12.9375 27.7222 12.875 28 12.875C28.2778 12.875 28.5417 12.9375 28.7917 13.0625C29.0417 13.1875 29.25 13.3889 29.4167 13.6667L35.625 23.7917C35.7917 24.0694 35.875 24.3611 35.875 24.6667C35.875 24.9722 35.8056 25.25 35.6667 25.5C35.5278 25.75 35.3333 25.9514 35.0833 26.1042C34.8333 26.2569 34.5417 26.3333 34.2083 26.3333H21.7917C21.4583 26.3333 21.1667 26.2569 20.9167 26.1042C20.6667 25.9514 20.4722 25.75 20.3333 25.5C20.1944 25.25 20.125 24.9722 20.125 24.6667C20.125 24.3611 20.2083 24.0694 20.375 23.7917ZM37.1667 44.6667C35.0833 44.6667 33.3125 43.9375 31.8542 42.4792C30.3958 41.0208 29.6667 39.25 29.6667 37.1667C29.6667 35.0833 30.3958 33.3125 31.8542 31.8542C33.3125 30.3958 35.0833 29.6667 37.1667 29.6667C39.25 29.6667 41.0208 30.3958 42.4792 31.8542C43.9375 33.3125 44.6667 35.0833 44.6667 37.1667C44.6667 39.25 43.9375 41.0208 42.4792 42.4792C41.0208 43.9375 39.25 44.6667 37.1667 44.6667ZM13 42.1667V32.1667C13 31.6944 13.1597 31.2986 13.4792 30.9792C13.7986 30.6597 14.1944 30.5 14.6667 30.5H24.6667C25.1389 30.5 25.5347 30.6597 25.8542 30.9792C26.1736 31.2986 26.3333 31.6944 26.3333 32.1667V42.1667C26.3333 42.6389 26.1736 43.0347 25.8542 43.3542C25.5347 43.6736 25.1389 43.8333 24.6667 43.8333H14.6667C14.1944 43.8333 13.7986 43.6736 13.4792 43.3542C13.1597 43.0347 13 42.6389 13 42.1667Z" fill="white"/>
</g>
</svg>

