<svg width="57" height="56" viewBox="0 0 57 56" fill="none" xmlns="http://www.w3.org/2000/svg">
<rect x="0.333344" width="56" height="56" rx="4" fill="#C87DFE"/>
<mask id="mask0_9080_2084" style="mask-type:alpha" maskUnits="userSpaceOnUse" x="8" y="8" width="41" height="40">
<rect x="8.33334" y="8" width="40" height="40" fill="#D9D9D9"/>
</mask>
<g mask="url(#mask0_9080_2084)">
<path d="M10 36.6667C10 35.7223 10.2431 34.8542 10.7292 34.0626C11.2153 33.2709 11.8611 32.6667 12.6667 32.2501C14.3889 31.389 16.1389 30.7431 17.9167 30.3126C19.6945 29.882 21.5 29.6667 23.3333 29.6667C25.1667 29.6667 26.9722 29.882 28.75 30.3126C30.5278 30.7431 32.2778 31.389 34 32.2501C34.8056 32.6667 35.4514 33.2709 35.9375 34.0626C36.4236 34.8542 36.6667 35.7223 36.6667 36.6667V38.0001C36.6667 38.9167 36.3403 39.7015 35.6875 40.3542C35.0347 41.007 34.25 41.3334 33.3333 41.3334H13.3333C12.4167 41.3334 11.632 41.007 10.9792 40.3542C10.3264 39.7015 10 38.9167 10 38.0001V36.6667ZM39.0833 41.3334C39.3889 40.8334 39.6181 40.2987 39.7708 39.7292C39.9236 39.1598 40 38.5834 40 38.0001V36.3334C40 35.1112 39.6597 33.9376 38.9792 32.8126C38.2986 31.6876 37.3333 30.7223 36.0833 29.9167C37.5 30.0834 38.8333 30.3681 40.0833 30.7709C41.3333 31.1737 42.5 31.6667 43.5833 32.2501C44.5833 32.8056 45.3472 33.4237 45.875 34.1042C46.4028 34.7848 46.6667 35.5279 46.6667 36.3334V38.0001C46.6667 38.9167 46.3403 39.7015 45.6875 40.3542C45.0347 41.007 44.25 41.3334 43.3333 41.3334H39.0833ZM23.3333 28.0001C21.5 28.0001 19.9306 27.3473 18.625 26.0417C17.3195 24.7362 16.6667 23.1667 16.6667 21.3334C16.6667 19.5001 17.3195 17.9306 18.625 16.6251C19.9306 15.3195 21.5 14.6667 23.3333 14.6667C25.1667 14.6667 26.7361 15.3195 28.0417 16.6251C29.3472 17.9306 30 19.5001 30 21.3334C30 23.1667 29.3472 24.7362 28.0417 26.0417C26.7361 27.3473 25.1667 28.0001 23.3333 28.0001ZM40 21.3334C40 23.1667 39.3472 24.7362 38.0417 26.0417C36.7361 27.3473 35.1667 28.0001 33.3333 28.0001C33.0278 28.0001 32.6389 27.9654 32.1667 27.8959C31.6945 27.8265 31.3056 27.7501 31 27.6667C31.75 26.7779 32.3264 25.7917 32.7292 24.7084C33.132 23.6251 33.3333 22.5001 33.3333 21.3334C33.3333 20.1667 33.132 19.0417 32.7292 17.9584C32.3264 16.8751 31.75 15.889 31 15.0001C31.3889 14.8612 31.7778 14.7709 32.1667 14.7292C32.5556 14.6876 32.9445 14.6667 33.3333 14.6667C35.1667 14.6667 36.7361 15.3195 38.0417 16.6251C39.3472 17.9306 40 19.5001 40 21.3334Z" fill="white"/>
</g>
</svg>
