<svg width="39" height="39" viewBox="0 0 39 39" fill="none" xmlns="http://www.w3.org/2000/svg">
<circle cx="19.5" cy="19.5" r="19.5" fill="#EEEEEE"/>
<mask id="mask0_9508_1996" style="mask-type:alpha" maskUnits="userSpaceOnUse" x="8" y="8" width="24" height="24">
<rect x="8" y="8" width="24" height="24" fill="#D9D9D9"/>
</mask>
<g mask="url(#mask0_9508_1996)">
<path d="M15.2145 27.7365C13.7766 27.7365 12.548 27.2202 11.5288 26.1874C10.5096 25.1547 10 23.8925 10 22.4008C10 21.1223 10.3713 19.983 11.114 18.9831C11.8567 17.9832 12.8285 17.3439 14.0294 17.0652C14.4245 15.5571 15.2145 14.3359 16.3997 13.4015C17.5848 12.4672 18.9279 12 20.4291 12C22.2779 12 23.8462 12.668 25.134 14.0039C26.4218 15.3399 27.0657 16.9668 27.0657 18.8847C28.1561 19.0159 29.0607 19.5035 29.7797 20.3477C30.4986 21.1919 30.8581 22.1796 30.8581 23.3106C30.8581 24.54 30.4433 25.585 29.6138 26.4456C28.7842 27.3062 27.7768 27.7365 26.5917 27.7365H21.3772C20.8557 27.7365 20.4093 27.5439 20.038 27.1587C19.6666 26.7735 19.481 26.3104 19.481 25.7694V20.7043L17.964 22.2287L16.6367 20.8518L20.4291 16.9177L24.2215 20.8518L22.8941 22.2287L21.3772 20.7043V25.7694H26.5917C27.2554 25.7694 27.8163 25.5318 28.2746 25.0564C28.7328 24.581 28.9619 23.9991 28.9619 23.3106C28.9619 22.6221 28.7328 22.0402 28.2746 21.5648C27.8163 21.0895 27.2554 20.8518 26.5917 20.8518H25.1696V18.8847C25.1696 17.5242 24.7074 16.3644 23.783 15.4055C22.8586 14.4465 21.7406 13.9671 20.4291 13.9671C19.1175 13.9671 17.9996 14.4465 17.0752 15.4055C16.1508 16.3644 15.6886 17.5242 15.6886 18.8847H15.2145C14.298 18.8847 13.5159 19.2208 12.868 19.8928C12.2201 20.5649 11.8962 21.3763 11.8962 22.3271C11.8962 23.2778 12.2201 24.0892 12.868 24.7613C13.5159 25.4334 14.298 25.7694 15.2145 25.7694H17.5848V27.7365H15.2145Z" fill="#8D8D8D"/>
</g>
</svg>
