<svg width="56" height="56" viewBox="0 0 56 56" fill="none" xmlns="http://www.w3.org/2000/svg">
<rect width="56" height="56" rx="4" fill="#7C2EBF"/>
<mask id="mask0_9080_2082" style="mask-type:alpha" maskUnits="userSpaceOnUse" x="8" y="8" width="40" height="40">
<rect x="8" y="8" width="40" height="40" fill="#D9D9D9"/>
</mask>
<g mask="url(#mask0_9080_2082)">
<path d="M16.3333 44.6667C15.4167 44.6667 14.6319 44.3404 13.9792 43.6876C13.3264 43.0348 13 42.2501 13 41.3334V21.3334C13 20.4167 13.3264 19.632 13.9792 18.9792C14.6319 18.3265 15.4167 18.0001 16.3333 18.0001H19.6667C19.6667 15.6945 20.4792 13.7292 22.1042 12.1042C23.7292 10.4792 25.6944 9.66675 28 9.66675C30.3056 9.66675 32.2708 10.4792 33.8958 12.1042C35.5208 13.7292 36.3333 15.6945 36.3333 18.0001H39.6667C40.5833 18.0001 41.3681 18.3265 42.0208 18.9792C42.6736 19.632 43 20.4167 43 21.3334V41.3334C43 42.2501 42.6736 43.0348 42.0208 43.6876C41.3681 44.3404 40.5833 44.6667 39.6667 44.6667H16.3333ZM23 18.0001H33C33 16.6112 32.5139 15.4306 31.5417 14.4584C30.5694 13.4862 29.3889 13.0001 28 13.0001C26.6111 13.0001 25.4306 13.4862 24.4583 14.4584C23.4861 15.4306 23 16.6112 23 18.0001ZM27.9583 31.3334C30.0139 31.3334 31.875 30.6529 33.5417 29.2917C35.2083 27.9306 36.0278 26.4029 36 24.7084C36 24.2362 35.8472 23.8334 35.5417 23.5001C35.2361 23.1667 34.8472 23.0001 34.375 23.0001C33.9861 23.0001 33.6389 23.1251 33.3333 23.3751C33.0278 23.6251 32.8056 24.0001 32.6667 24.5001C32.3611 25.5556 31.7639 26.4029 30.875 27.0417C29.9861 27.6806 29.0139 28.0001 27.9583 28.0001C26.9028 28.0001 25.9236 27.6806 25.0208 27.0417C24.1181 26.4029 23.5278 25.5556 23.25 24.5001C23.1111 23.9723 22.9028 23.5904 22.625 23.3542C22.3472 23.1181 22.0139 23.0001 21.625 23.0001C21.1528 23.0001 20.7569 23.1667 20.4375 23.5001C20.1181 23.8334 19.9583 24.2362 19.9583 24.7084C19.9583 26.4029 20.7778 27.9306 22.4167 29.2917C24.0556 30.6529 25.9028 31.3334 27.9583 31.3334Z" fill="white"/>
</g>
</svg>
